# Exported from Wings 3D 2.1.7
mtllib butterfly.mtl
o image1
#12 vertices, 20 faces
v -0.10000000 0.20995000 0.10000000
v -0.10000000 0.20995000 -0.10000000
v -0.10000000 0.21005000 -0.10000000
v -0.10000000 0.21005000 0.10000000
v 0.10000000 0.20995000 0.10000000
v 0.10000000 0.20995000 -0.10000000
v 0.10000000 0.21005000 -0.10000000
v 0.10000000 0.21005000 0.10000000
v 0.0000000e+0 0.18005000 0.10000000
v 0.0000000e+0 0.18005000 -0.10000000
v 0.0000000e+0 0.17995000 -0.10000000
v 0.0000000e+0 0.17995000 0.10000000
vt 0.0000000e+0 0.0000000e+0
vt 0.0000000e+0 1.00000000
vt 0.50000000 0.0000000e+0
vt 0.50000000 1.00000000
vt 1.00000000 0.0000000e+0
vt 1.00000000 1.00000000
vn -1.00000000 0.0000000e+0 0.0000000e+0
vn 3.4728351e-14 0.0000000e+0 1.00000000
vn 3.4728351e-14 0.0000000e+0 1.00000000
vn -0.28734789 -0.95782629 0.0000000e+0
vn -1.00000000 0.0000000e+0 0.0000000e+0
vn -0.28734789 -0.95782629 0.0000000e+0
vn -1.00000000 0.0000000e+0 0.0000000e+0
vn 1.7448879e-14 0.0000000e+0 -1.00000000
vn 1.7448879e-14 0.0000000e+0 -1.00000000
vn -0.28734789 -0.95782629 0.0000000e+0
vn -1.00000000 0.0000000e+0 0.0000000e+0
vn 0.28734789 0.95782629 0.0000000e+0
vn 3.4897757e-14 0.0000000e+0 -1.00000000
vn -1.00000000 0.0000000e+0 0.0000000e+0
vn 0.28734789 0.95782629 0.0000000e+0
vn -1.00000000 0.0000000e+0 0.0000000e+0
vn 0.28734789 0.95782629 0.0000000e+0
vn 6.9456702e-14 0.0000000e+0 1.00000000
vn -1.7448879e-14 0.0000000e+0 1.00000000
vn 1.00000000 0.0000000e+0 0.0000000e+0
vn 0.28734789 -0.95782629 0.0000000e+0
vn -1.7448879e-14 0.0000000e+0 1.00000000
vn -3.4728351e-14 0.0000000e+0 -1.00000000
vn 1.00000000 0.0000000e+0 0.0000000e+0
vn 0.28734789 -0.95782629 0.0000000e+0
vn 1.00000000 0.0000000e+0 0.0000000e+0
vn 0.28734789 -0.95782629 0.0000000e+0
vn -3.4728351e-14 0.0000000e+0 -1.00000000
vn 1.00000000 0.0000000e+0 0.0000000e+0
vn -0.28734789 0.95782629 0.0000000e+0
vn -6.9456702e-14 0.0000000e+0 -1.00000000
vn -3.4897757e-14 0.0000000e+0 1.00000000
vn 1.00000000 0.0000000e+0 0.0000000e+0
vn -0.28734789 0.95782629 0.0000000e+0
vn -0.28734789 0.95782629 0.0000000e+0
vn 1.00000000 0.0000000e+0 0.0000000e+0
vn 1.1591069e-16 1.00000000 0.0000000e+0
vn 8.6397361e-15 0.0000000e+0 1.00000000
vn 1.1591069e-16 1.00000000 0.0000000e+0
vn 8.6397361e-15 0.0000000e+0 1.00000000
vn 8.6397361e-15 0.0000000e+0 1.00000000
vn 8.6397361e-15 0.0000000e+0 1.00000000
vn 5.7955343e-17 1.00000000 0.0000000e+0
vn -8.6397361e-15 0.0000000e+0 -1.00000000
vn 5.7955343e-17 1.00000000 0.0000000e+0
vn 5.7955343e-17 1.00000000 0.0000000e+0
vn 5.7955343e-17 1.00000000 0.0000000e+0
vn -8.6397361e-15 0.0000000e+0 -1.00000000
vn -8.6397361e-15 0.0000000e+0 -1.00000000
vn -8.6397361e-15 0.0000000e+0 -1.00000000
vn 0.0000000e+0 0.0000000e+0 -1.00000000
vn -1.1591069e-16 -1.00000000 0.0000000e+0
vn -1.1591069e-16 -1.00000000 0.0000000e+0
vn 0.0000000e+0 0.0000000e+0 -1.00000000
vn -5.7955343e-17 -1.00000000 0.0000000e+0
vn -5.7955343e-17 -1.00000000 0.0000000e+0
vn -5.7955343e-17 -1.00000000 0.0000000e+0
vn 0.0000000e+0 0.0000000e+0 1.00000000
vn 0.0000000e+0 0.0000000e+0 1.00000000
vn -5.7955343e-17 -1.00000000 0.0000000e+0
g image1_default
usemtl default
s 2
f 1//3 9//42 4//18
f 2//9 10//50 11//54
f 3//13 10//49 2//8
f 5//22 9//41 12//59
f 6//28 10//48 7//31
f 8//32 9//38 5//19
f 11//51 10//44 6//23
f 12//58 9//40 1//2
s 3
f 1//1 4//16 2//7
f 2//5 4//14 3//11
f 6//26 8//36 5//20
f 7//29 8//33 6//24
g image1_image
usemtl image
s 1
f 2/2/10 12/3/60 1/1/4
f 4/1/17 10/4/46 3/2/12
f 5/5/21 12/3/57 6/6/27
f 6/6/25 12/3/56 11/4/53
f 7/6/30 10/4/47 8/5/35
f 8/5/34 10/4/45 9/3/39
f 9/3/37 10/4/43 4/1/15
f 11/4/52 12/3/55 2/2/6
