# Exported from Wings 3D 2.1.5
mtllib butterfly.mtl
o image1
#12 vertices, 20 faces
v -3.00000000 0.89850000 3.00000000
v -3.00000000 0.89850000 -3.00000000
v -3.00000000 0.90150000 -3.00000000
v -3.00000000 0.90150000 3.00000000
v 3.00000000 0.89850000 3.00000000
v 3.00000000 0.89850000 -3.00000000
v 3.00000000 0.90150000 -3.00000000
v 3.00000000 0.90150000 3.00000000
v 0.0000000e+0 1.5000000e-3 3.00000000
v 0.0000000e+0 1.5000000e-3 -3.00000000
v 0.0000000e+0 -1.5000000e-3 -3.00000000
v 0.0000000e+0 -1.5000000e-3 3.00000000
vt 0.0000000e+0 0.0000000e+0
vt 0.0000000e+0 1.00000000
vt 0.50000000 0.0000000e+0
vt 0.50000000 1.00000000
vt 1.00000000 0.0000000e+0
vt 1.00000000 1.00000000
vn -1.00000000 0.0000000e+0 0.0000000e+0
vn 0.0000000e+0 0.0000000e+0 1.00000000
vn 0.0000000e+0 0.0000000e+0 1.00000000
vn -0.28734789 -0.95782629 -7.0893386e-17
vn -1.00000000 0.0000000e+0 0.0000000e+0
vn 2.4671623e-14 0.0000000e+0 -1.00000000
vn -0.28734789 -0.95782629 -5.9077822e-17
vn -1.00000000 0.0000000e+0 0.0000000e+0
vn 2.4671623e-14 0.0000000e+0 -1.00000000
vn -0.28734789 -0.95782629 -5.9077822e-17
vn -1.00000000 0.0000000e+0 0.0000000e+0
vn 4.9343246e-14 0.0000000e+0 -1.00000000
vn 0.28734789 0.95782629 4.7262258e-17
vn -1.00000000 0.0000000e+0 0.0000000e+0
vn 0.28734789 0.95782629 4.7262258e-17
vn -1.00000000 0.0000000e+0 0.0000000e+0
vn 0.28734789 0.95782629 4.7262258e-17
vn 0.0000000e+0 0.0000000e+0 1.00000000
vn -2.4671623e-14 0.0000000e+0 1.00000000
vn 1.00000000 0.0000000e+0 0.0000000e+0
vn 0.28734789 -0.95782629 -4.7262258e-17
vn -2.4671623e-14 0.0000000e+0 1.00000000
vn 1.00000000 0.0000000e+0 0.0000000e+0
vn 0.28734789 -0.95782629 -4.7262258e-17
vn 1.00000000 0.0000000e+0 0.0000000e+0
vn 0.28734789 -0.95782629 -4.7262258e-17
vn 0.0000000e+0 0.0000000e+0 -1.00000000
vn 0.0000000e+0 0.0000000e+0 -1.00000000
vn 1.00000000 0.0000000e+0 0.0000000e+0
vn -0.28734789 0.95782629 7.0893386e-17
vn 0.0000000e+0 0.0000000e+0 -1.00000000
vn 4.9343246e-14 0.0000000e+0 1.00000000
vn 1.00000000 0.0000000e+0 0.0000000e+0
vn -0.28734789 0.95782629 5.9077822e-17
vn -0.28734789 0.95782629 5.9077822e-17
vn 1.00000000 0.0000000e+0 0.0000000e+0
vn 8.6933015e-17 1.00000000 4.9343246e-17
vn -1.2335811e-14 0.0000000e+0 1.00000000
vn 8.6933015e-17 1.00000000 4.9343246e-17
vn -1.2335811e-14 0.0000000e+0 1.00000000
vn -1.2335811e-14 0.0000000e+0 1.00000000
vn -1.2335811e-14 0.0000000e+0 1.00000000
vn 5.7955343e-17 1.00000000 5.5511151e-17
vn 1.2335811e-14 0.0000000e+0 -1.00000000
vn 5.7955343e-17 1.00000000 5.5511151e-17
vn 7.2444179e-17 1.00000000 5.5511151e-17
vn 4.3466508e-17 1.00000000 5.5511151e-17
vn 1.2335811e-14 0.0000000e+0 -1.00000000
vn 1.2335811e-14 0.0000000e+0 -1.00000000
vn 1.2335811e-14 0.0000000e+0 -1.00000000
vn -8.6933015e-17 -1.00000000 -4.9343246e-17
vn -8.6933015e-17 -1.00000000 -4.9343246e-17
vn 0.0000000e+0 0.0000000e+0 -1.00000000
vn 0.0000000e+0 0.0000000e+0 -1.00000000
vn -5.7955343e-17 -1.00000000 -5.5511151e-17
vn -5.7955343e-17 -1.00000000 -5.5511151e-17
vn -4.3466508e-17 -1.00000000 -5.5511151e-17
vn -4.9343246e-14 0.0000000e+0 1.00000000
vn -4.9343246e-14 0.0000000e+0 1.00000000
vn -7.2444179e-17 -1.00000000 -5.5511151e-17
g image1_default
usemtl default
s 2
f 1//3 9//42 4//18
f 2//9 10//50 11//54
f 3//12 10//44 2//6
f 5//22 9//41 12//59
f 6//27 10//48 7//31
f 8//32 9//38 5//19
f 11//53 10//49 6//28
f 12//58 9//40 1//2
s 3
f 1//1 4//16 2//8
f 2//5 4//14 3//11
f 6//25 8//36 5//20
f 7//29 8//33 6//23
g image1_image
usemtl image
s 1
f 2/2/10 12/3/60 1/1/4
f 4/1/17 10/4/46 3/2/13
f 5/5/21 12/3/57 6/6/26
f 6/6/24 12/3/56 11/4/52
f 7/6/30 10/4/47 8/5/35
f 8/5/34 10/4/45 9/3/39
f 9/3/37 10/4/43 4/1/15
f 11/4/51 12/3/55 2/2/7
