# Exported from Wings 3D 2.1.7
mtllib cube.mtl
o cube
#56 vertices, 108 faces
v -0.97401531 -0.95837495 -0.97260857
v -1.00000000 -1.00000000 -0.33333300
v -1.00000000 -1.00000000 0.33333300
v -0.96935087 -0.96508074 0.95997754
v -1.00571391 -0.29599290 -0.95951202
v -0.96088889 -0.33333300 -0.33333300
v -0.96088889 -0.33333300 0.33333300
v -1.00000000 -0.33333300 1.00000000
v -1.00000000 0.33333300 -1.00000000
v -0.96088889 0.33333300 -0.33333300
v -0.96088889 0.33333300 0.33333300
v -1.00000000 0.33333300 1.00000000
v -0.86328425 0.91315363 -0.99298693
v -1.00000000 1.00000000 -0.33333300
v -1.00000000 1.00000000 0.33333300
v -0.94399495 0.96166395 0.98223389
v -0.33333300 -1.00000000 -1.00000000
v -0.33333300 -0.98755556 -0.33333300
v -0.33333300 -0.98755556 0.33333300
v -0.33333300 -1.00000000 1.00000000
v -0.33333300 -0.33333300 -0.95733333
v -0.33333300 -0.33333300 0.96622222
v -0.33333300 0.33333300 -0.95733333
v -0.33333300 0.33333300 0.96622222
v -0.33333300 1.00000000 -1.00000000
v -0.33333300 0.95733333 -0.33333300
v -0.33333300 0.95733333 0.33333300
v -0.33333300 1.00000000 1.00000000
v 0.33333300 -1.00000000 -1.00000000
v 0.33333300 -0.98755556 -0.33333300
v 0.33333300 -0.98755556 0.33333300
v 0.33333300 -1.00000000 1.00000000
v 0.33333300 -0.33333300 -0.95733333
v 0.33333300 -0.33333300 0.96622222
v 0.33333300 0.33333300 -0.95733333
v 0.33333300 0.33333300 0.96622222
v 0.33333300 1.00000000 -1.00000000
v 0.33333300 0.95733333 -0.33333300
v 0.33333300 0.95733333 0.33333300
v 0.33333300 1.00000000 1.00000000
v 0.94367269 -0.95388619 -0.97886639
v 1.00000000 -1.00000000 -0.33333300
v 1.00000000 -1.00000000 0.33333300
v 0.96464269 -0.96990378 0.99699721
v 1.00000000 -0.33333300 -1.00000000
v 0.93422222 -0.33333300 -0.33333300
v 0.93422222 -0.33333300 0.33333300
v 1.00000000 -0.33333300 1.00000000
v 1.00000000 0.33333300 -1.00000000
v 0.93422222 0.33333300 -0.33333300
v 0.93422222 0.33333300 0.33333300
v 1.00000000 0.33333300 1.00000000
v 0.92876227 0.98534284 -0.96012809
v 1.00000000 1.00000000 -0.33333300
v 1.00000000 1.00000000 0.33333300
v 0.95073278 0.95073278 0.95073278
vt 0.0000000e+0 0.11220710
vt 0.0000000e+0 0.55534979
vt 0.0000000e+0 0.77814950
vt 1.9730431e-4 0.44443440
vt 3.8741419e-4 0.88938078
vt 5.2225666e-4 6.2683349e-3
vt 6.3868302e-4 0.22292142
vt 5.5829671e-3 0.66728771
vt 8.6750580e-3 0.32582135
vt 9.5620659e-3 0.34113106
vt 1.0382316e-2 0.99718461
vt 1.2013367e-2 0.66401052
vt 0.11085634 3.8607548e-4
vt 0.11104916 0.66673776
vt 0.11117175 0.55557380
vt 0.11117632 0.33358056
vt 0.11119504 0.77787576
vt 0.11125154 0.11162913
vt 0.11129159 0.66673776
vt 0.11129397 0.44468066
vt 0.11153940 0.88897934
vt 0.11162133 0.33351074
vt 0.11181292 0.22223988
vt 0.11238139 1.00000000
vt 0.22144693 0.0000000e+0
vt 0.22185173 0.11116402
vt 0.22206494 0.55555262
vt 0.22209478 0.33351074
vt 0.22217536 0.44467111
vt 0.22219675 0.66677689
vt 0.22220439 0.66664479
vt 0.22221425 0.77767243
vt 0.22243830 0.88848863
vt 0.22262642 0.33344999
vt 0.22262652 0.22196350
vt 0.22300616 0.99920745
vt 0.31039040 0.65223710
vt 0.32750281 0.32985107
vt 0.32795192 0.67349175
vt 0.32876954 0.34062364
vt 0.32925561 6.3634663e-3
vt 0.32944277 0.99446001
vt 0.33297749 0.77767006
vt 0.33309704 0.88821024
vt 0.33309704 0.88857294
vt 0.33310024 0.10996446
vt 0.33316036 0.55576657
vt 0.33322961 0.77746254
vt 0.33405450 0.45084597
vt 0.33409436 0.65570523
vt 0.33409436 0.22083323
vt 0.33409436 0.22193803
vt 0.33428353 0.11115904
vt 0.33480953 0.55698273
vt 0.33759158 0.34210003
vt 0.33832775 0.67205292
vt 0.34047780 0.45243622
vt 0.34257009 0.99334562
vt 0.34333259 3.1670822e-3
vt 0.35702600 0.33238696
vt 0.44400668 0.33397741
vt 0.44430958 0.88863929
vt 0.44434291 0.77771010
vt 0.44444073 0.66673776
vt 0.44444982 0.99984264
vt 0.44480085 0.44532446
vt 0.44496039 3.6079757e-4
vt 0.44529081 0.11134383
vt 0.44531763 0.22235876
vt 0.44558219 0.55608173
vt 0.44607197 0.66673037
vt 0.44619017 0.33357170
vt 0.55512760 0.77771274
vt 0.55514411 0.66682222
vt 0.55523061 0.88848821
vt 0.55529443 0.33357170
vt 0.55561667 0.99956978
vt 0.55568565 0.44477382
vt 0.55572860 0.0000000e+0
vt 0.55616715 0.11106353
vt 0.55624871 0.55557267
vt 0.55628697 0.66621499
vt 0.55630983 0.22192035
vt 0.55692425 0.33294289
vt 0.65587958 0.32601294
vt 0.65861248 8.2233595e-3
vt 0.65863920 0.99136152
vt 0.65986462 0.33880038
vt 0.65997329 0.67182073
vt 0.66426406 0.65958049
vt 0.66600658 0.77755832
vt 0.66616923 0.88831630
vt 0.66674850 0.44413176
vt 0.66719788 0.55495081
vt 0.66722308 0.11106422
vt 0.66731225 0.22178936
vn -0.59109613 -0.54704297 -0.59274730
vn -0.71917365 -0.69482304 -3.1942484e-3
vn -0.72067967 -0.69228608 3.6888934e-2
vn -0.58381709 -0.57067052 0.57748832
vn -0.71836026 7.5015659e-3 -0.69563083
vn -0.99890197 2.9274145e-2 3.6576930e-2
vn -0.99973301 1.6390954e-2 -1.6286276e-2
vn -0.70953407 -3.9468205e-2 0.70356497
vn -0.69875609 6.5861271e-2 -0.71232171
vn -0.99996416 8.4007618e-3 -1.0536490e-3
vn -0.99914214 -2.9283023e-2 -2.9283023e-2
vn -0.70298317 2.3602597e-3 0.71120256
vn -0.54970821 0.57551713 -0.60547578
vn -0.69782351 0.70649276 -0.11794205
vn -0.70295354 0.71121012 6.0404823e-3
vn -0.56033360 0.57617232 0.59502245
vn -1.5183495e-2 -0.68687247 -0.72661935
vn 9.3317032e-3 -0.99991292 9.3317032e-3
vn 2.9022324e-4 -0.99999995 -1.5555155e-4
vn -4.1628728e-2 -0.69518392 0.71762551
vn 2.5064532e-3 3.1950720e-2 -0.99948630
vn 1.1483773e-2 1.1390943e-2 0.99986918
vn 1.6027328e-2 -3.2434356e-2 -0.99934535
vn 2.5300892e-2 -2.5300892e-2 0.99935966
vn -6.1900417e-2 0.70313532 -0.70835660
vn 3.8379384e-3 0.99995015 9.2173467e-3
vn 3.1934732e-2 0.99897965 -3.1934732e-2
vn 3.4513234e-3 0.70711461 0.70709053
vn 3.8537774e-2 -0.68995449 -0.72282614
vn 2.3444296e-3 -0.99999579 -1.7121803e-3
vn -9.3317032e-3 -0.99991292 -9.3317032e-3
vn -2.9611356e-3 -0.69469250 0.71930074
vn -2.0258005e-2 2.0450206e-2 -0.99958562
vn -2.5300892e-2 2.5300892e-2 0.99935966
vn -3.1934732e-2 -3.1934732e-2 -0.99897965
vn -9.5424430e-3 -9.5424430e-3 0.99990894
vn -6.0285253e-3 0.71130651 -0.70285610
vn -3.1934732e-2 0.99897965 3.1934732e-2
vn -1.4666814e-2 0.99978486 -1.4666814e-2
vn 5.6255829e-2 0.71067888 0.70126372
vn 0.58068031 -0.56393622 -0.58718508
vn 0.73341113 -0.67746524 -5.6115613e-2
vn 0.72613103 -0.68755226 -2.3699360e-3
vn 0.56600044 -0.57066783 0.59496364
vn 0.71778038 -4.4342981e-2 -0.69485612
vn 0.99929785 2.6048461e-2 2.6930995e-2
vn 0.99758671 4.9095626e-2 -4.9095626e-2
vn 0.71392068 1.6330411e-2 0.70003612
vn 0.71045877 4.0109045e-3 -0.70372740
vn 0.99758671 -4.9095626e-2 4.9095626e-2
vn 0.99921777 -2.7962875e-2 -2.7962875e-2
vn 0.72269117 5.6243907e-2 0.68887887
vn 0.55047447 0.60190917 -0.57851811
vn 0.70621633 0.70798611 3.7637265e-3
vn 0.71808125 0.69368216 5.6252844e-2
vn 0.58475951 0.57548672 0.57172664
g cube_cube_auv
usemtl cube_auv
s 1
f 1/42/1 17/36/17 2/44/2
f 2/61/2 5/57/5 1/55/1
f 2/61/2 7/78/7 6/66/6
f 2/44/2 17/36/17 18/33/18
f 2/44/2 19/32/19 3/43/3
f 3/76/3 7/78/7 2/61/2
f 3/43/3 19/32/19 4/39/4
f 4/88/4 7/78/7 3/76/3
f 4/39/4 19/32/19 20/30/20
f 4/56/4 22/63/22 8/48/8
f 5/57/5 10/70/10 9/54/9
f 5/49/5 17/28/17 1/40/1
f 5/49/5 23/27/23 21/29/21
f 6/66/6 5/57/5 2/61/2
f 6/66/6 10/70/10 5/57/5
f 7/78/7 10/70/10 6/66/6
f 7/78/7 12/94/12 11/81/11
f 8/93/8 7/78/7 4/88/4
f 8/93/8 12/94/12 7/78/7
f 8/48/8 22/63/22 12/45/12
f 9/47/9 23/27/23 5/49/5
f 10/70/10 13/50/13 9/54/9
f 10/70/10 15/82/15 14/71/14
f 11/81/11 10/70/10 7/78/7
f 11/81/11 15/82/15 10/70/10
f 12/94/12 15/82/15 11/81/11
f 12/45/12 22/63/22 24/62/24
f 12/45/12 28/65/28 16/58/16
f 13/37/13 23/27/23 9/47/9
f 13/60/13 26/69/26 25/72/25
f 14/71/14 13/50/13 10/70/10
f 14/52/14 26/69/26 13/60/13
f 15/53/15 26/69/26 14/52/14
f 15/53/15 28/67/28 27/68/27
f 16/90/16 15/82/15 12/94/12
f 16/59/16 28/67/28 15/53/15
f 17/36/17 30/21/30 18/33/18
f 17/28/17 33/20/33 29/16/29
f 18/33/18 19/32/19 2/44/2
f 18/33/18 30/21/30 19/32/19
f 19/32/19 30/21/30 31/17/31
f 19/32/19 32/14/32 20/30/20
f 20/64/20 22/63/22 4/56/4
f 20/64/20 32/74/32 22/63/22
f 21/29/21 17/28/17 5/49/5
f 21/29/21 33/20/33 17/28/17
f 22/63/22 32/74/32 34/73/34
f 22/63/22 36/75/36 24/62/24
f 23/27/23 33/20/33 21/29/21
f 23/27/23 37/19/37 35/15/35
f 24/62/24 28/65/28 12/45/12
f 24/62/24 36/75/36 28/65/28
f 25/31/25 23/27/23 13/37/13
f 25/31/25 37/19/37 23/27/23
f 26/69/26 37/84/37 25/72/25
f 26/69/26 39/80/39 38/83/38
f 27/68/27 26/69/26 15/53/15
f 27/68/27 39/80/39 26/69/26
f 28/65/28 36/75/36 40/77/40
f 28/67/28 39/80/39 27/68/27
f 29/24/29 30/21/30 17/36/17
f 29/24/29 41/11/41 30/21/30
f 30/21/30 41/11/41 42/5/42
f 30/21/30 43/3/43 31/17/31
f 31/17/31 32/14/32 19/32/19
f 31/17/31 43/3/43 32/14/32
f 32/14/32 43/3/43 44/8/44
f 32/74/32 48/91/48 34/73/34
f 33/20/33 41/10/41 29/16/29
f 33/20/33 49/2/49 45/4/45
f 34/73/34 36/75/36 22/63/22
f 34/73/34 48/91/48 36/75/36
f 35/15/35 33/20/33 23/27/23
f 35/15/35 49/2/49 33/20/33
f 36/75/36 48/91/48 52/92/52
f 36/75/36 56/87/56 40/77/40
f 37/19/37 49/2/49 35/15/35
f 37/84/37 54/96/54 53/85/53
f 38/83/38 37/84/37 26/69/26
f 38/83/38 54/96/54 37/84/37
f 39/80/39 54/96/54 38/83/38
f 39/80/39 56/86/56 55/95/55
f 40/79/40 39/80/39 28/67/28
f 40/79/40 56/86/56 39/80/39
f 41/41/41 46/26/46 42/25/42
f 42/5/42 43/3/43 30/21/30
f 42/25/42 46/26/46 43/13/43
f 43/13/43 46/26/46 47/18/47
f 43/13/43 48/1/48 44/6/44
f 44/89/44 48/91/48 32/74/32
f 45/4/45 41/10/41 33/20/33
f 45/46/45 46/26/46 41/41/41
f 45/46/45 49/51/49 46/26/46
f 46/26/46 49/51/49 50/35/50
f 46/26/46 51/23/51 47/18/47
f 47/18/47 48/1/48 43/13/43
f 47/18/47 51/23/51 48/1/48
f 48/1/48 51/23/51 52/7/52
f 49/51/49 54/34/54 50/35/50
f 50/35/50 51/23/51 46/26/46
f 50/35/50 54/34/54 51/23/51
f 51/23/51 54/34/54 55/22/55
f 51/23/51 56/9/56 52/7/52
f 52/92/52 56/87/56 36/75/36
f 53/12/53 49/2/49 37/19/37
f 53/38/53 54/34/54 49/51/49
f 55/95/55 54/96/54 39/80/39
f 55/22/55 56/9/56 51/23/51
