# Exported from Wings 3D 2.1.5
mtllib dice.mtl
o dice
#4 vertices, 4 faces
v 0.0000000e+0 1.63299316 0.0000000e+0
v 0.0000000e+0 0.0000000e+0 1.15470054
v -1.00000000 0.0000000e+0 -0.57735027
v 1.00000000 0.0000000e+0 -0.57735027
vt 3.5244444e-2 9.3888889e-2
vt 7.2800000e-2 0.78973218
vt 0.22202334 0.41739942
vt 0.25957889 0.46622165
vt 0.40880223 9.3888889e-2
vt 0.44635779 0.78973218
vt 0.45545779 0.18980000
vt 0.55192222 0.62979463
vt 0.57773328 0.54277893
vt 0.79647320 0.91217778
vt 0.82228425 0.26039579
vt 0.91874869 0.55919885
vn 0.0000000e+0 1.00000000 -1.1102230e-16
vn 0.0000000e+0 -0.33333333 0.94280904
vn -0.81649658 -0.33333333 -0.47140452
vn 0.81649658 -0.33333333 -0.47140452
g dice_dice_auv
usemtl dice_auv
s 1
f 1/9/1 3/7/3 2/11/2
f 1/3/1 4/1/4 3/5/3
f 2/8/2 4/12/4 1/10/1
f 3/6/3 4/2/4 2/4/2
